<?xml version="1.0" encoding="UTF-8" standalone="no"?>
<!DOCTYPE svg PUBLIC "-//W3C//DTD SVG 1.1//EN" "http://www.w3.org/Graphics/SVG/1.1/DTD/svg11.dtd">
<!-- Created with Vectornator (http://vectornator.io/) -->
<svg height="100%" stroke-miterlimit="10" style="fill-rule:nonzero;clip-rule:evenodd;stroke-linecap:round;stroke-linejoin:round;" version="1.1" viewBox="0 0 360 80" width="100%" xml:space="preserve" xmlns="http://www.w3.org/2000/svg" xmlns:vectornator="http://vectornator.io" xmlns:xlink="http://www.w3.org/1999/xlink">
<defs/>
<g id="레이어-1" vectornator:layerName="레이어 1">
<g opacity="1" vectornator:layerName="그룹 4">
<path d="M212.064 14.2165C211.035 14.3511 210.142 15.0028 210.142 15.0028C202.85 22.9423 190.003 25.1379 190.003 25.1379C197.041 26.8261 208.701 22.6478 208.701 22.6478C215.389 20.3235 214.773 16.4881 214.773 16.4881C214.244 14.4765 213.093 14.0819 212.064 14.2165ZM212.763 15.6144C212.763 15.6144 214.611 15.8578 213.157 18.5414C211.702 21.225 206.464 20.7446 204.07 22.7352C204.07 22.7352 210.875 15.1 212.763 15.6144Z" fill="#a48463" fill-rule="nonzero" opacity="1" stroke="#866d4c" stroke-linecap="butt" stroke-linejoin="round" stroke-width="-179.299" vectornator:layerName="곡선 38"/>
<path d="M184.874 27.1891C184.874 27.1891 189.401 31.5019 195.768 29.7456C195.768 29.7456 197.935 30.8559 208.898 29.1982C213.052 28.5702 217.788 22.7478 214.805 20.9964C214.805 20.9964 213.323 20.1228 214.519 22.6949C214.519 22.6949 214.835 23.2885 213.428 24.1554C213.428 24.1554 207.125 29.4616 195.406 28.6292C195.406 28.6292 188.274 29.213 184.874 27.1891Z" fill="#a48463" fill-rule="nonzero" opacity="1" stroke="#866d4c" stroke-linecap="butt" stroke-linejoin="round" stroke-width="-179.299" vectornator:layerName="곡선 14"/>
<path d="M179.48 14.6573C179.48 14.6573 176.706 13.5917 176.131 10.0562C176.131 10.0562 179.04 9.12588 179.48 14.6573Z" fill="#a48463" fill-rule="nonzero" opacity="1" stroke="#866d4c" stroke-linecap="butt" stroke-linejoin="round" stroke-width="-179.299" vectornator:layerName="곡선 7"/>
<path d="M179.971 12.2384C179.971 12.2384 177.323 8.00498 179.87 5.32739C179.87 5.32739 182.509 6.76278 179.971 12.2384Z" fill="#a48463" fill-rule="nonzero" opacity="1" stroke="#866d4c" stroke-linecap="butt" stroke-linejoin="round" stroke-width="-179.299" vectornator:layerName="곡선 8"/>
<path d="M180.523 14.7099C180.523 14.7099 180.436 10.8785 183.658 10.2472C183.658 10.2472 185.574 11.1397 180.523 14.7099Z" fill="#a48463" fill-rule="nonzero" opacity="1" stroke="#866d4c" stroke-linecap="butt" stroke-linejoin="round" stroke-width="-179.299" vectornator:layerName="곡선 9"/>
<path d="M118.271 33.3367C118.271 33.3367 120.446 37.6853 128.708 31.561C128.708 31.561 134.579 26.5963 141.283 28.5894C141.283 28.5894 142.334 29.2779 142.261 28.227C142.261 28.227 137.297 23.3348 128.527 30.0752C128.527 30.0752 123.852 33.1192 118.271 33.3367Z" fill="#a48463" fill-rule="nonzero" opacity="1" stroke="#866d4c" stroke-linecap="butt" stroke-linejoin="round" stroke-width="-179.299" vectornator:layerName="곡선 1"/>
<path d="M138.348 29.894C138.348 29.894 137.985 30.2926 138.964 31.3798C138.964 31.3798 140.051 33.083 140.812 33.083C141.573 33.083 138.058 34.1702 136.644 29.9665L138.348 29.894Z" fill="#a48463" fill-rule="nonzero" opacity="1" stroke="#866d4c" stroke-linecap="butt" stroke-linejoin="round" stroke-width="-179.299" vectornator:layerName="곡선 2"/>
<path d="M145.852 20.9645C145.852 20.9645 139.783 25.1909 151.758 28.8754C151.758 28.8754 156.646 31.0798 163.996 29.5905C163.996 29.5905 172.249 31.1038 175.784 27.0659C175.784 27.0659 176.314 26.9037 176.942 28.0028C176.942 28.0028 177.531 24.2069 173.404 22.3931C173.404 22.3931 166.47 18.522 159.794 19.2471L156.681 19.3397C156.681 19.3397 159.884 22.3289 172.915 24.5906C172.915 24.5906 174.643 24.7162 175.393 26.1157C175.393 26.1157 173.489 29.5952 164.6 28.272C164.6 28.272 157.02 29.7025 148.766 25.7316C148.766 25.7316 144.047 23.5002 145.852 20.9645Z" fill="#a48463" fill-rule="nonzero" opacity="1" stroke="#866d4c" stroke-linecap="butt" stroke-linejoin="round" stroke-width="-179.299" vectornator:layerName="곡선 3"/>
<path d="M146.448 14.566C145.834 14.7502 145.34 15.2143 145.094 16.1823C145.094 16.1823 142.748 20.3732 155.491 23.6963C155.491 23.6963 164.922 27.4496 169.777 25.1379C169.777 25.1379 160.283 24.3312 151.123 16.1823C151.123 16.1823 148.293 14.0133 146.448 14.566ZM147.191 15.9202C147.608 15.8362 148.233 15.967 149.244 16.3571C149.244 16.3571 152.254 20.535 155.404 22.211C155.404 22.211 148.055 20.1555 146.842 18.0171C146.842 18.0171 145.94 16.1722 147.191 15.9202Z" fill="#a48463" fill-rule="nonzero" opacity="1" stroke="#866d4c" stroke-linecap="butt" stroke-linejoin="round" stroke-width="-179.299" vectornator:layerName="곡선 37"/>
<path d="M163.141 35.4837C163.141 35.4837 161.528 33.4174 159.771 35.6052C159.771 35.6052 158.765 36.6108 159.671 37.7599C160.577 38.9091 162.312 38.9312 162.831 38.4229C163.351 37.9146 163.041 38.3124 163.417 37.6936C163.793 37.0749 174.632 38.0347 177.658 31.434C177.658 31.434 181.1 25.939 176.787 18.8325C176.787 18.8325 172.496 13.8271 166.403 12.5979C166.403 12.5979 155.956 10.157 155.412 9.03006C155.412 9.03006 161.255 16.2989 168.732 16.752C168.732 16.752 176.854 18.7081 177.658 24.2798C177.658 24.2798 178.955 29.894 173.171 33.2094C173.171 33.2094 170.097 34.9792 163.141 35.4837Z" fill="#a48463" fill-rule="nonzero" opacity="1" stroke="#866d4c" stroke-linecap="butt" stroke-linejoin="round" stroke-width="-179.299" vectornator:layerName="곡선 6"/>
<path d="M204.683 8.99558C204.683 8.99558 192.312 11.4199 185.823 16.5894C185.823 16.5894 177.805 22.2039 182.269 31.5517C182.269 31.5517 187.3 38.3668 196.034 37.8321C196.034 37.8321 196.736 39.0194 198.114 38.9028C199.492 38.7862 200.499 37.6518 200.298 36.5068C200.097 35.3618 199.217 34.2275 197.383 35.1074C197.383 35.1074 196.98 35.2876 196.768 35.6375C196.768 35.6375 195.643 36.609 187.135 32.8594C187.135 32.8594 184.014 31.9043 182.2 27.7932C182.2 27.7932 181.253 24.6131 183.965 20.8885C183.965 20.8885 185.922 18.1321 193.475 16.4226C193.475 16.4226 194.967 16.0124 197.688 14.5457C197.688 14.5457 203.336 12.1966 204.683 8.99558Z" fill="#a48463" fill-rule="nonzero" opacity="1" stroke="#866d4c" stroke-linecap="butt" stroke-linejoin="round" stroke-width="-179.299" vectornator:layerName="곡선 10"/>
<path d="M202.905 19.2064C202.905 19.2064 183.083 17.894 183.056 28.4762C183.056 28.4762 183.577 25.4357 187.738 24.9717C187.738 24.9717 193.86 24.5154 202.339 19.3124" fill="#a48463" fill-rule="nonzero" opacity="1" stroke="#866d4c" stroke-linecap="butt" stroke-linejoin="round" stroke-width="-179.299" vectornator:layerName="곡선 11"/>
<path d="M219.907 26.9249C219.907 26.9249 216.369 28.6762 218.459 28.6583C218.459 28.6583 221.444 27.872 223.123 28.2294C224.407 28.5024 231.701 30.4989 236.436 34.2158C236.436 34.2158 240.067 36.5323 241.729 33.16C241.729 33.16 238.894 34.1283 231.048 29.0345C231.048 29.0345 223.404 25.0858 219.907 26.9249Z" fill="#a48463" fill-rule="nonzero" opacity="1" stroke="#866d4c" stroke-linecap="butt" stroke-linejoin="round" stroke-width="-179.299" vectornator:layerName="곡선 15"/>
<path d="M218.339 33.2175C218.339 33.2175 222.244 32.0365 221.839 29.0273C221.839 29.0273 223.557 29.0244 223.031 31.0649C223.031 31.0649 221.711 33.8811 218.339 33.2175Z" fill="#a48463" fill-rule="nonzero" opacity="1" stroke="#866d4c" stroke-linecap="butt" stroke-linejoin="round" stroke-width="-179.299" vectornator:layerName="곡선 17"/>
</g>
<g fill="#3d3025" opacity="1" stroke="none" vectornator:layerName="텍스트 2">
<path d="M89.8071 62.9387C89.8071 66.6201 88.1288 69.345 84.7723 71.1135C83.1482 71.9797 80.8203 72.5211 77.7886 72.7376C76.9584 72.7737 74.5042 72.7917 70.4259 72.7917L63.8211 72.7917C63.2075 72.7917 62.9008 72.6293 62.9008 72.3045C62.9008 71.9797 63.4602 71.8173 64.579 71.8173C65.8783 71.8173 66.6453 71.6819 66.8799 71.4112C67.1145 71.1406 67.2318 70.3195 67.2318 68.948L67.2318 39.6596C67.2318 38.0716 67.1596 37.1513 67.0152 36.8986C66.7626 36.4655 65.8422 36.2309 64.2542 36.1949C63.2797 36.1949 62.7925 36.0144 62.7925 35.6535C62.7925 35.3287 63.2436 35.1662 64.1459 35.1662C64.182 35.1662 64.3986 35.1662 64.7956 35.1662C65.1926 35.2023 65.5535 35.2204 65.8783 35.2204L76.4351 35.3287C80.333 35.3647 83.2384 36.0144 85.1512 37.2776C87.3889 38.7574 88.5078 40.9048 88.5078 43.72C88.5078 46.1742 87.5874 48.1863 85.7468 49.7563C83.9061 51.3263 81.3255 52.3098 78.0051 52.7068L78.0051 53.0316C81.2894 53.2481 83.8519 53.9339 85.6926 55.0888C88.4356 56.8212 89.8071 59.4378 89.8071 62.9387ZM82.5526 44.2613C82.5526 40.7965 81.7586 38.4867 80.1706 37.3317C79.3405 36.7182 77.7705 36.4114 75.4606 36.4114C74.8471 36.4114 73.8907 36.4655 72.5914 36.5738L72.5914 52.2737L73.0786 52.2737L76.0562 52.1654C78.1134 52.0932 79.7104 51.3624 80.8473 49.9728C81.9842 48.5833 82.5526 46.6795 82.5526 44.2613ZM84.1226 62.3432C84.1226 57.7957 82.282 54.9805 78.6006 53.8978C77.5179 53.573 75.5148 53.4105 72.5914 53.4105L72.5914 69.5435C72.5914 70.5902 72.6996 71.1857 72.9162 71.33C73.2771 71.5827 74.2877 71.709 75.9479 71.709C78.4382 71.709 80.4232 70.915 81.903 69.327C83.3828 67.7389 84.1226 65.411 84.1226 62.3432Z"/>
<path d="M114.115 66.9449C114.115 66.981 114.097 67.2066 114.061 67.6216C114.025 68.0367 114.006 68.4066 114.006 68.7314L113.952 71.8173C113.952 72.1782 113.97 72.5752 114.006 73.0083L105.02 72.8459L94.7336 72.9C93.9756 72.9 93.5967 72.7737 93.5967 72.5211C93.5967 72.2323 93.8132 72.088 94.2463 72.088C95.4013 72.088 96.078 72.0068 96.2765 71.8443C96.475 71.6819 96.5742 71.0954 96.5742 70.0849L96.5742 51.4616C96.5742 49.9818 96.4479 49.1969 96.1953 49.1066C95.9426 49.0164 95.311 48.9713 94.3005 48.9713C93.8674 48.9713 93.6508 48.845 93.6508 48.5923C93.6508 48.3036 93.8854 48.1592 94.3546 48.1592L95.6539 48.1592C96.0148 48.1592 96.3757 48.1592 96.7367 48.1592C97.1337 48.1953 97.3322 48.2134 97.3322 48.2134L98.6856 48.2134C98.8661 48.2134 99.7683 48.1953 101.392 48.1592C103.053 48.1592 105.038 48.1592 107.348 48.1592L110.542 48.1592C111.48 48.1592 112.256 48.1231 112.87 48.0509L112.87 48.4299L112.924 49.242C112.996 49.7833 113.14 51.4075 113.357 54.1143C113.393 54.2948 113.411 54.5113 113.411 54.764C113.411 55.2332 113.285 55.4678 113.032 55.4678C112.707 55.4678 112.473 55.1069 112.328 54.385C111.823 51.6421 110.867 50.036 109.459 49.5668C108.665 49.3142 106.788 49.1878 103.829 49.1878L101.068 49.1878L101.068 59.3115L102.367 59.3115C104.677 59.3115 106.102 59.122 106.644 58.7431C107.185 58.3641 107.546 57.3265 107.727 55.6302C107.835 54.6196 108.051 54.1143 108.376 54.1143C108.737 54.1143 108.918 54.4753 108.918 55.1971C108.918 55.6302 108.891 56.2979 108.836 57.2002C108.782 58.1025 108.755 58.7882 108.755 59.2574C108.755 61.6033 108.809 63.2094 108.918 64.0756C108.954 64.3644 108.972 64.5989 108.972 64.7794C108.972 65.3569 108.791 65.6456 108.43 65.6456C108.106 65.6456 107.889 65.1945 107.781 64.2922C107.564 62.3432 107.203 61.1793 106.698 60.8003C106.193 60.4213 104.767 60.2319 102.421 60.2319L101.068 60.2319L101.068 71.9255C106.373 71.8895 109.495 71.7451 110.433 71.4924C111.877 71.0954 112.725 69.363 112.978 66.2953C113.014 65.7539 113.212 65.4832 113.573 65.4832C113.934 65.4832 114.115 65.9704 114.115 66.9449Z"/>
<path d="M136.907 67.9194C136.907 69.9405 136.871 71.6368 136.798 73.0083C136.582 73.0444 136.311 73.0624 135.986 73.0624C135.95 73.0624 135.67 73.0354 135.147 72.9812C134.624 72.9271 133.947 72.9 133.117 72.9L130.573 72.8459L121.315 72.7376L116.876 72.7917C116.407 72.7917 116.172 72.6654 116.172 72.4128C116.172 72.1962 116.876 72.0338 118.283 71.9255C118.68 71.8895 118.924 71.7992 119.014 71.6549C119.104 71.5105 119.15 71.1135 119.15 70.4638L119.15 52.3278C119.15 50.3067 118.987 49.242 118.662 49.1337C118.518 49.0615 118.202 49.0254 117.715 49.0254C117.228 49.0254 116.912 49.0074 116.767 48.9713C116.37 48.9713 116.172 48.8269 116.172 48.5382C116.172 48.2855 116.407 48.1592 116.876 48.1592L124.347 48.2134C124.744 48.1773 125.159 48.1592 125.592 48.1592C126.278 48.1592 126.621 48.3216 126.621 48.6465C126.621 48.863 126.025 48.9893 124.834 49.0254C124.257 49.0615 123.914 49.1878 123.805 49.4044C123.697 49.6209 123.643 50.3969 123.643 51.7323L123.643 71.8173C125.087 71.8534 126.133 71.8714 126.783 71.8714C130.681 71.8714 133.117 71.4924 134.091 70.7345C134.885 70.121 135.391 68.8217 135.607 66.8366C135.68 65.9704 135.878 65.5373 136.203 65.5373C136.672 65.5373 136.907 66.3313 136.907 67.9194Z"/>
<path d="M159.32 67.9194C159.32 69.9405 159.283 71.6368 159.211 73.0083C158.995 73.0444 158.724 73.0624 158.399 73.0624C158.363 73.0624 158.083 73.0354 157.56 72.9812C157.037 72.9271 156.36 72.9 155.53 72.9L152.985 72.8459L143.728 72.7376L139.289 72.7917C138.819 72.7917 138.585 72.6654 138.585 72.4128C138.585 72.1962 139.289 72.0338 140.696 71.9255C141.093 71.8895 141.337 71.7992 141.427 71.6549C141.517 71.5105 141.562 71.1135 141.562 70.4638L141.562 52.3278C141.562 50.3067 141.4 49.242 141.075 49.1337C140.931 49.0615 140.615 49.0254 140.128 49.0254C139.641 49.0254 139.325 49.0074 139.18 48.9713C138.783 48.9713 138.585 48.8269 138.585 48.5382C138.585 48.2855 138.819 48.1592 139.289 48.1592L146.76 48.2134C147.157 48.1773 147.572 48.1592 148.005 48.1592C148.691 48.1592 149.033 48.3216 149.033 48.6465C149.033 48.863 148.438 48.9893 147.247 49.0254C146.669 49.0615 146.327 49.1878 146.218 49.4044C146.11 49.6209 146.056 50.3969 146.056 51.7323L146.056 71.8173C147.5 71.8534 148.546 71.8714 149.196 71.8714C153.094 71.8714 155.53 71.4924 156.504 70.7345C157.298 70.121 157.804 68.8217 158.02 66.8366C158.092 65.9704 158.291 65.5373 158.616 65.5373C159.085 65.5373 159.32 66.3313 159.32 67.9194Z"/>
<path d="M181.516 66.9449C181.516 66.981 181.498 67.2066 181.462 67.6216C181.426 68.0367 181.408 68.4066 181.408 68.7314L181.353 71.8173C181.353 72.1782 181.371 72.5752 181.408 73.0083L172.421 72.8459L162.135 72.9C161.377 72.9 160.998 72.7737 160.998 72.5211C160.998 72.2323 161.214 72.088 161.647 72.088C162.802 72.088 163.479 72.0068 163.678 71.8443C163.876 71.6819 163.975 71.0954 163.975 70.0849L163.975 51.4616C163.975 49.9818 163.849 49.1969 163.596 49.1066C163.344 49.0164 162.712 48.9713 161.702 48.9713C161.268 48.9713 161.052 48.845 161.052 48.5923C161.052 48.3036 161.286 48.1592 161.756 48.1592L163.055 48.1592C163.416 48.1592 163.777 48.1592 164.138 48.1592C164.535 48.1953 164.733 48.2134 164.733 48.2134L166.087 48.2134C166.267 48.2134 167.169 48.1953 168.794 48.1592C170.454 48.1592 172.439 48.1592 174.749 48.1592L177.943 48.1592C178.881 48.1592 179.657 48.1231 180.271 48.0509L180.271 48.4299L180.325 49.242C180.397 49.7833 180.541 51.4075 180.758 54.1143C180.794 54.2948 180.812 54.5113 180.812 54.764C180.812 55.2332 180.686 55.4678 180.433 55.4678C180.108 55.4678 179.874 55.1069 179.729 54.385C179.224 51.6421 178.268 50.036 176.86 49.5668C176.066 49.3142 174.189 49.1878 171.23 49.1878L168.469 49.1878L168.469 59.3115L169.768 59.3115C172.078 59.3115 173.504 59.122 174.045 58.7431C174.586 58.3641 174.947 57.3265 175.128 55.6302C175.236 54.6196 175.452 54.1143 175.777 54.1143C176.138 54.1143 176.319 54.4753 176.319 55.1971C176.319 55.6302 176.292 56.2979 176.237 57.2002C176.183 58.1025 176.156 58.7882 176.156 59.2574C176.156 61.6033 176.21 63.2094 176.319 64.0756C176.355 64.3644 176.373 64.5989 176.373 64.7794C176.373 65.3569 176.192 65.6456 175.831 65.6456C175.507 65.6456 175.29 65.1945 175.182 64.2922C174.965 62.3432 174.604 61.1793 174.099 60.8003C173.594 60.4213 172.168 60.2319 169.822 60.2319L168.469 60.2319L168.469 71.9255C173.774 71.8895 176.896 71.7451 177.835 71.4924C179.278 71.0954 180.126 69.363 180.379 66.2953C180.415 65.7539 180.614 65.4832 180.974 65.4832C181.335 65.4832 181.516 65.9704 181.516 66.9449Z"/>
<path d="M227.424 72.4128C227.424 72.7376 227.154 72.9 226.612 72.9C226.251 72.9 225.927 72.882 225.638 72.8459L218.762 72.7376L211.887 72.8459C211.634 72.882 211.364 72.9 211.075 72.9C210.353 72.9 209.992 72.7196 209.992 72.3586C209.992 71.9616 210.479 71.7631 211.454 71.7631C214.63 71.727 216.218 71.4022 216.218 70.7887C216.218 70.7526 216.182 70.6082 216.11 70.3556L215.677 68.8939L215.406 68.1359C215.081 67.0171 214.287 64.5448 213.024 60.7191L201.438 60.7191C199.273 66.4938 198.19 69.8142 198.19 70.6804C198.19 71.1857 198.407 71.4924 198.84 71.6007C198.948 71.6368 199.85 71.709 201.547 71.8173C202.593 71.8534 203.117 72.0338 203.117 72.3586C203.117 72.7196 202.647 72.9 201.709 72.9C200.049 72.9 198.118 72.8278 195.916 72.6835C195.375 72.6474 194.816 72.6293 194.238 72.6293C193.661 72.6293 193.101 72.6654 192.56 72.7376C192.271 72.7737 192.037 72.7917 191.856 72.7917C191.351 72.7917 191.098 72.6293 191.098 72.3045C191.098 71.9797 191.667 71.7992 192.803 71.7631C193.94 71.727 194.761 71.5556 195.267 71.2488C195.772 70.942 196.169 70.3556 196.458 69.4894C201.114 56.2076 204.903 45.5426 207.827 37.4941C207.899 37.061 208.043 36.5738 208.26 36.0324L208.53 35.058C208.639 34.661 208.783 34.4625 208.964 34.4625C209.072 34.4625 209.162 34.5707 209.234 34.7873C209.703 36.1949 210.768 39.1363 212.428 43.6117C213.728 47.1126 216.958 55.9009 222.119 69.9766C222.408 70.7706 222.778 71.2759 223.229 71.4924C223.68 71.709 224.609 71.8353 226.017 71.8714C226.955 71.9075 227.424 72.088 227.424 72.4128ZM212.699 59.4739C212.122 57.8498 211.165 55.161 209.83 51.4075L207.231 43.9906C205.715 47.9607 203.893 53.1218 201.763 59.4739L212.699 59.4739Z"/>
<path d="M249.891 48.5923C249.891 48.8811 249.494 49.0254 248.7 49.0254C248.592 49.0254 248.339 49.0074 247.942 48.9713L247.347 48.9713C247.022 48.9713 246.833 49.0435 246.779 49.1878C246.724 49.3322 246.697 49.8194 246.697 50.6495L246.697 70.518C246.697 71.8173 246.679 72.5752 246.643 72.7917C246.607 73.0083 246.445 73.1166 246.156 73.1166C245.759 73.1166 244.478 71.6188 242.312 68.6232C242.06 68.2262 241.663 67.6848 241.121 66.999C241.049 66.8908 240.85 66.6201 240.526 66.187C238.721 63.8049 235.455 59.3296 230.727 52.7609L230.727 69.8142C230.727 71.1496 230.916 71.8534 231.295 71.9255C231.674 71.9977 232.369 72.0338 233.379 72.0338L233.596 72.0338C234.029 72.0338 234.246 72.1601 234.246 72.4128C234.246 72.7015 233.849 72.8459 233.055 72.8459C232.91 72.8459 232.315 72.8098 231.268 72.7376C230.727 72.7015 230.24 72.6835 229.806 72.6835C229.446 72.6835 229.085 72.7015 228.724 72.7376C228.038 72.8098 227.298 72.8459 226.504 72.8459C225.927 72.8459 225.638 72.7015 225.638 72.4128C225.638 72.1601 225.981 72.0338 226.666 72.0338L227.154 72.0338L227.857 71.9797C228.724 71.9075 229.175 71.7451 229.211 71.4924C229.247 71.3481 229.265 70.8248 229.265 69.9225L229.265 55.0347C229.265 52.3278 229.103 50.7037 228.778 50.1623C228.345 49.4405 227.497 49.0796 226.233 49.0796C225.331 49.0796 224.88 48.9171 224.88 48.5923C224.88 48.3397 225.115 48.2134 225.584 48.2134L225.8 48.2134L228.778 48.2675C228.922 48.2675 229.157 48.2675 229.482 48.2675C229.843 48.2314 230.167 48.2134 230.456 48.2134L232.459 48.2134L245.236 65.7539L245.236 50.7037C245.236 49.8014 245.199 49.2781 245.127 49.1337C245.055 48.9893 244.766 48.9171 244.261 48.9171C243.792 48.9171 243.413 48.9352 243.124 48.9713L242.799 48.9713C242.114 48.9713 241.771 48.8269 241.771 48.5382C241.771 48.3577 241.942 48.2494 242.285 48.2134C242.628 48.1773 243.846 48.1592 245.939 48.1592C247.924 48.1592 249.079 48.1773 249.404 48.2134C249.729 48.2494 249.891 48.3758 249.891 48.5923Z"/>
<path d="M276.744 65.3208C276.744 65.5012 276.419 65.6095 275.769 65.6456L274.037 65.6997C273.856 65.7358 273.721 65.8982 273.631 66.187C273.54 66.4757 273.495 67.1254 273.495 68.1359L273.495 70.3014C271.113 72.2504 268.37 73.2248 265.266 73.2248C261.296 73.2248 258.138 72.097 255.792 69.8413C253.446 67.5855 252.273 64.5809 252.273 60.8274C252.273 56.9295 253.419 53.7805 255.711 51.3804C258.003 48.9803 261.026 47.7803 264.779 47.7803C266.728 47.7803 268.821 48.3938 271.059 49.6209C271.24 49.7292 271.402 49.7833 271.546 49.7833C271.835 49.7833 272.034 49.5487 272.142 49.0796C272.358 48.4299 272.611 48.1051 272.9 48.1051C273.189 48.1051 273.333 48.2494 273.333 48.5382C273.333 48.466 273.297 48.7728 273.225 49.4585C273.116 50.5052 273.062 52.5804 273.062 55.6843C273.062 56.5144 272.846 56.9295 272.413 56.9295C272.088 56.9295 271.925 56.7129 271.925 56.2798C271.853 53.9339 271.194 52.0661 269.949 50.6766C268.704 49.2871 267.089 48.5923 265.104 48.5923C262.686 48.5923 260.791 49.6751 259.42 51.8406C258.048 54.0061 257.362 56.9656 257.362 60.7191C257.362 64.3283 258.057 67.1795 259.447 69.2728C260.836 71.3661 262.722 72.4128 265.104 72.4128C267.27 72.4128 268.605 71.727 269.11 70.3556C269.291 69.8864 269.381 69.1284 269.381 68.0818C269.381 66.7825 269.3 66.0516 269.137 65.8892C268.975 65.7268 268.298 65.6456 267.107 65.6456L266.728 65.6456C266.548 65.6817 266.385 65.6997 266.241 65.6997C265.952 65.6997 265.808 65.5734 265.808 65.3208C265.808 64.996 266.241 64.8335 267.107 64.8335L268.515 64.8335C268.84 64.8335 269.237 64.8335 269.706 64.8335C270.211 64.8696 270.482 64.8877 270.518 64.8877C273.044 64.8877 274.488 64.8696 274.849 64.8335L275.823 64.8335C276.437 64.8335 276.744 64.996 276.744 65.3208Z"/>
<path d="M297.749 66.9449C297.749 66.981 297.731 67.2066 297.695 67.6216C297.659 68.0367 297.641 68.4066 297.641 68.7314L297.586 71.8173C297.586 72.1782 297.605 72.5752 297.641 73.0083L288.654 72.8459L278.368 72.9C277.61 72.9 277.231 72.7737 277.231 72.5211C277.231 72.2323 277.447 72.088 277.88 72.088C279.035 72.088 279.712 72.0068 279.911 71.8443C280.109 71.6819 280.208 71.0954 280.208 70.0849L280.208 51.4616C280.208 49.9818 280.082 49.1969 279.829 49.1066C279.577 49.0164 278.945 48.9713 277.935 48.9713C277.501 48.9713 277.285 48.845 277.285 48.5923C277.285 48.3036 277.52 48.1592 277.989 48.1592L279.288 48.1592C279.649 48.1592 280.01 48.1592 280.371 48.1592C280.768 48.1953 280.966 48.2134 280.966 48.2134L282.32 48.2134C282.5 48.2134 283.402 48.1953 285.027 48.1592C286.687 48.1592 288.672 48.1592 290.982 48.1592L294.176 48.1592C295.114 48.1592 295.89 48.1231 296.504 48.0509L296.504 48.4299L296.558 49.242C296.63 49.7833 296.774 51.4075 296.991 54.1143C297.027 54.2948 297.045 54.5113 297.045 54.764C297.045 55.2332 296.919 55.4678 296.666 55.4678C296.341 55.4678 296.107 55.1069 295.962 54.385C295.457 51.6421 294.501 50.036 293.093 49.5668C292.299 49.3142 290.422 49.1878 287.463 49.1878L284.702 49.1878L284.702 59.3115L286.001 59.3115C288.311 59.3115 289.737 59.122 290.278 58.7431C290.819 58.3641 291.18 57.3265 291.361 55.6302C291.469 54.6196 291.685 54.1143 292.01 54.1143C292.371 54.1143 292.552 54.4753 292.552 55.1971C292.552 55.6302 292.525 56.2979 292.47 57.2002C292.416 58.1025 292.389 58.7882 292.389 59.2574C292.389 61.6033 292.443 63.2094 292.552 64.0756C292.588 64.3644 292.606 64.5989 292.606 64.7794C292.606 65.3569 292.425 65.6456 292.064 65.6456C291.74 65.6456 291.523 65.1945 291.415 64.2922C291.198 62.3432 290.837 61.1793 290.332 60.8003C289.827 60.4213 288.401 60.2319 286.055 60.2319L284.702 60.2319L284.702 71.9255C290.007 71.8895 293.129 71.7451 294.068 71.4924C295.511 71.0954 296.359 69.363 296.612 66.2953C296.648 65.7539 296.847 65.4832 297.208 65.4832C297.568 65.4832 297.749 65.9704 297.749 66.9449Z"/>
</g>
</g>
</svg>
